<?xml version="1.0" encoding="utf-8"?>
<!-- Generator: Adobe Illustrator 16.0.0, SVG Export Plug-In . SVG Version: 6.00 Build 0)  -->
<!DOCTYPE svg PUBLIC "-//W3C//DTD SVG 1.1//EN" "http://www.w3.org/Graphics/SVG/1.1/DTD/svg11.dtd">
<svg version="1.1" id="Layer_1" xmlns="http://www.w3.org/2000/svg" xmlns:xlink="http://www.w3.org/1999/xlink" x="0px" y="0px"
	 width="287.004px" height="84.62px" viewBox="0 0 287.004 84.62" style="enable-background:new 0 0 287.004 84.62;"
	 xml:space="preserve">
<g>
	<g>
		<g>
			<path d="M29.018,0c10.4,0,18.703,4.948,22.309,15.097l-0.838,0.335C47.217,6.123,39.586,1.09,30.275,1.09
				c-12.999,0-21.638,10.401-21.638,29.104c0,18.703,8.639,29.103,21.638,29.103c9.311,0,17.025-4.78,20.464-14.258l0.839,0.336
				c-3.773,10.148-12.16,15.012-22.561,15.012C12.831,60.386,0,47.973,0,30.361C0,12.749,12.831,0,29.018,0z"/>
			<path d="M87.895,39.671H60.722l-8.807,19.877h-1.006L77.327,0h0.336l27.593,59.548h-8.219L87.895,39.671z M74.057,9.562
				L61.142,38.748h26.335L74.057,9.562z"/>
			<path d="M136.373,60.386h-0.336L109.618,2.349v57.199h-0.923V0.84h8.555l22.394,49.147L159.521,0.84h7.968v58.708h-7.633V2.349
				L136.373,60.386z"/>
			<path d="M183.258,59.548h-7.801V0.84h7.801V59.548z"/>
			<path d="M191.141,0.84h7.8v57.784h31.199v0.924h-38.999V0.84z"/>
			<path d="M269.644,39.671h-27.173l-8.807,19.877h-1.007L259.076,0h0.336l27.592,59.548h-8.219L269.644,39.671z M255.805,9.562
				l-12.916,29.187h26.335L255.805,9.562z"/>
		</g>
	</g>
	<g>
		<path d="M31.862,73.51v4.057h2.494v1.358h-2.494v5.585h-1.563V72.113h4.783v1.396H31.862z"/>
		<path d="M57.047,84.51V72.113h4.858v1.414h-3.312v3.854h2.4v1.358h-2.4v4.354h3.312v1.416H57.047z"/>
		<path d="M89.641,84.62c-1.135,0-1.562-0.334-1.562-1.488v-2.829c0-0.745-0.336-1.229-1.062-1.229H85.62v5.437h-1.563V72.113h3.033
			c1.583,0,2.477,0.782,2.477,2.493v1.881c0,1.061-0.335,1.731-1.321,1.973c0.967,0.205,1.377,1.043,1.377,1.936v2.643
			c0,0.336,0.111,0.484,0.428,0.484v1.098H89.641z M88.021,74.552c0-0.651-0.279-1.042-0.949-1.042H85.62v4.317h1.303
			c0.688,0,1.099-0.427,1.099-1.21V74.552z"/>
		<path d="M116.873,84.51l-2.587-6.161l-0.819-2.086v8.247h-1.47V72.113h1.322l2.438,6.254l0.763,2.104v-8.357h1.471V84.51H116.873z
			"/>
		<path d="M144.497,84.51l-0.503-2.848h-2.195l-0.521,2.848h-1.471l2.327-12.396h1.637l2.31,12.396H144.497z M142.915,74.98
			l-0.875,5.304h1.713L142.915,74.98z M143.324,71.463h-0.874l0.707-2.383h1.433L143.324,71.463z"/>
		<path d="M172.772,84.51l-2.587-6.161l-0.819-2.086v8.247h-1.471V72.113h1.322l2.438,6.254l0.764,2.104v-8.357h1.471V84.51H172.772
			z"/>
		<path d="M199.354,84.51h-2.959V72.113h2.959c1.954,0,2.792,1.211,2.792,3.035v6.328C202.146,83.299,201.308,84.51,199.354,84.51z
			 M200.601,75.148c0-1.043-0.391-1.583-1.321-1.583h-1.321v9.491h1.321c0.931,0,1.321-0.539,1.321-1.562V75.148z"/>
		<path d="M224.539,84.51V72.113h4.858v1.414h-3.313v3.854h2.401v1.358h-2.401v4.354h3.313v1.416H224.539z"/>
		<path d="M252.907,83.094h3.63v1.416h-5.49v-0.744l3.834-10.2h-3.629v-1.452h5.453v0.745L252.907,83.094z"/>
	</g>
</g>
</svg>
