<?xml version="1.0" encoding="utf-8"?>
<!-- Generator: Adobe Illustrator 16.0.0, SVG Export Plug-In . SVG Version: 6.00 Build 0)  -->
<!DOCTYPE svg PUBLIC "-//W3C//DTD SVG 1.1//EN" "http://www.w3.org/Graphics/SVG/1.1/DTD/svg11.dtd">
<svg version="1.1" id="Layer_1" xmlns="http://www.w3.org/2000/svg" xmlns:xlink="http://www.w3.org/1999/xlink" x="0px" y="0px"
	 width="464.967px" height="172.165px" viewBox="0 0 464.967 172.165" style="enable-background:new 0 0 464.967 172.165;"
	 xml:space="preserve">
<style type="text/css">
<![CDATA[
	.st0{fill:#F5F5F5;}
]]>
</style>
<g>
	<g>
		<path class="st0" d="M390.364,18.723c0.596,0.179,1.333-0.013,1.688-0.539c0.335-0.495,0.719-1.248,0.308-1.817
			c-0.196-0.273-0.427-0.464-0.721-0.63c-0.082-0.047-0.166-0.091-0.249-0.139c-0.044-0.024-0.087-0.052-0.128-0.079
			c-0.002-0.002-0.003-0.003-0.006-0.005c-0.035-0.03-0.071-0.058-0.109-0.084c-0.191-0.145-0.444-0.231-0.697-0.252
			c-0.011-0.001-0.023-0.001-0.035-0.002c-0.248-0.018-0.5,0.022-0.731,0.117c-0.347,0.128-0.652,0.363-0.709,0.718
			c-0.075,0.463-0.313,0.846-0.312,1.325C388.668,18.159,389.741,18.535,390.364,18.723z"/>
		<path class="st0" d="M360.187,26.544c-0.217-0.159-0.628-0.869-0.787-1.068c-3.098-3.9-7.317-6.609-10.931-9.979
			c-1.655-1.544-3.13-3.252-4.138-5.296c-0.874-1.772-1.194-3.748-1.074-5.704c8.739,5.156,16.602,11.788,25.805,16.167
			c0.816,0.389,1.859,0.304,2.686-0.014c0.419-0.162,1.385-0.841,0.559-1.234c-11.12-5.292-20.283-13.875-31.403-19.167
			c-0.538-0.256-1.137-0.287-1.723-0.217c-0.509,0.061-1.582,0.253-1.794,0.84c-2.057,5.681,2.045,11.316,5.709,15.284
			c4.099,4.438,8.982,8.09,13.847,11.636c0.677,0.493,1.982,0.257,2.687-0.014C360.182,27.565,360.876,27.047,360.187,26.544z"/>
		<path class="st0" d="M421.007,11.91c-0.439-0.739-1.571-0.684-2.276-0.508c-3.474,0.865-6.981,1.556-10.556,1.83
			c-3.521,0.27-7.064,0.006-10.518-0.712c-1.018-0.72-2.187-1.248-3.292-1.583c-3.364-1.018-6.992-0.127-10.092,1.295
			c-6.04,2.771-10.963,7.921-15.23,12.888c-5.546,6.453-8.849,14.584-10.946,22.745c-2.157,8.401-3.056,17.077-3.669,25.709
			c-0.052,0.736-0.101,1.47-0.149,2.206c-0.055,0.844,1.377,1.011,1.916,0.948c0.786-0.095,1.581-0.517,1.637-1.372
			c0.015-0.22,0.029-0.44,0.044-0.661c0.438-0.168,0.809-0.445,0.851-0.862c0.439-4.243,1.517-8.373,3.27-12.264
			c1.637-3.638,3.933-6.972,6.506-10.006c4.164-4.912,9.241-8.911,14.346-12.79c4.33-3.291,8.582-6.708,12.295-10.696
			c2.312-2.483,5.125-5.898,5.425-9.483c2.918-1.306,5.944-2.329,9.052-3.08c0.537-0.13,1.076-0.25,1.615-0.365
			c2.93-0.386,5.832-1.022,8.695-1.735C420.52,13.266,421.431,12.625,421.007,11.91z M371.585,26.721
			c1.889-2.347,3.992-4.547,6.192-6.602c2.511-2.344,5.239-4.517,8.346-6.016c1.333-0.643,2.682-1.059,4.043-1.205
			c0.16-0.017,0.32-0.026,0.481-0.036c-0.219,0.014,0.288,0.002,0.303,0.003c0.18,0.002,0.358,0.016,0.537,0.028
			c-0.011-0.001,0.408,0.046,0.348,0.033c0.747,0.12,1.327,0.313,1.967,0.615c1.074,0.507,1.968,1.239,2.547,2.164
			c-2.496,11.578-13.568,18.577-22.452,25.269c-4.833,3.64-9.89,7.673-13.524,12.603c0.241-1.243,0.5-2.484,0.787-3.72
			C363.086,41.563,366.2,33.411,371.585,26.721z"/>
		<path class="st0" d="M357.539,34.08c-3.259-2.883-6.849,0.486-9.892,1.839c0.011-0.008,0.023-0.012,0.036-0.012
			c-0.936,0.425-1.579,1.598-0.683,2.415c0.661,0.605,1.67,0.395,2.475,0.294c1.979-0.245,3.887-1.152,5.82-1.629
			C356.545,36.677,359.08,35.68,357.539,34.08z M351.441,37.98c0.048-0.025,0.097-0.053,0.144-0.083
			c-0.013,0.011-0.025,0.021-0.037,0.032C351.526,37.942,351.486,37.96,351.441,37.98z M352.142,37.384
			c0.005,0.008,0.008,0.016,0.012,0.023c-0.02,0.016-0.037,0.033-0.057,0.049C352.114,37.433,352.13,37.408,352.142,37.384z"/>
	</g>
	<g>
		<g>
			<path class="st0" d="M47.012,35.075c16.849,0,30.3,8.016,36.142,24.457l-1.358,0.543C76.496,44.993,64.132,36.84,49.049,36.84
				c-21.061,0-35.055,16.849-35.055,47.148s13.995,47.148,35.055,47.148c15.083,0,27.583-7.745,33.153-23.099l1.359,0.544
				c-6.114,16.44-19.701,24.32-36.55,24.32C20.788,132.903,0,112.793,0,84.261C0,55.728,20.788,35.075,47.012,35.075z"/>
			<path class="st0" d="M142.396,99.343H98.374l-14.267,32.201h-1.629l42.799-96.47h0.543l44.702,96.47h-13.315L142.396,99.343z
				 M119.978,50.564L99.054,97.848h42.664L119.978,50.564z"/>
			<path class="st0" d="M220.934,132.903h-0.544L177.59,38.879v92.666h-1.495V36.433h13.859l36.278,79.623l32.202-79.623h12.908
				v95.111h-12.365V38.879L220.934,132.903z"/>
			<path class="st0" d="M296.89,131.544h-12.638V36.433h12.638V131.544z"/>
			<path class="st0" d="M309.661,36.433h12.637v93.616h50.544v1.495h-63.181V36.433z"/>
			<path class="st0" d="M436.841,99.343h-44.022l-14.267,32.201h-1.631l42.801-96.47h0.543l44.702,96.47h-13.315L436.841,99.343z
				 M414.422,50.564l-20.925,47.284h42.664L414.422,50.564z"/>
		</g>
	</g>
	<g>
		<path class="st0" d="M51.62,154.164v6.572h4.041v2.202H51.62v9.046h-2.533v-20.081h7.749v2.261H51.62z"/>
		<path class="st0" d="M92.421,171.984v-20.081h7.871v2.29h-5.367v6.242h3.89v2.202h-3.89v7.055h5.367v2.292H92.421z"/>
		<path class="st0" d="M145.225,172.165c-1.839,0-2.533-0.542-2.533-2.412v-4.582c0-1.208-0.543-1.992-1.719-1.992h-2.262v8.806
			h-2.533v-20.081h4.915c2.564,0,4.01,1.267,4.01,4.039v3.047c0,1.718-0.542,2.805-2.14,3.195c1.567,0.332,2.231,1.688,2.231,3.137
			v4.281c0,0.543,0.181,0.783,0.693,0.783v1.779H145.225z M142.601,155.852c0-1.055-0.453-1.688-1.537-1.688h-2.353v6.995h2.111
			c1.116,0,1.779-0.692,1.779-1.959V155.852z"/>
		<path class="st0" d="M189.344,171.984l-4.192-9.979l-1.327-3.379v13.358h-2.382v-20.081h2.141l3.95,10.131l1.237,3.408v-13.539
			h2.382v20.081H189.344z"/>
		<path class="st0" d="M234.096,171.984l-0.814-4.613h-3.557l-0.844,4.613h-2.382l3.769-20.081h2.653l3.74,20.081H234.096z
			 M231.533,156.546l-1.417,8.593h2.775L231.533,156.546z M232.196,150.847h-1.417l1.146-3.859h2.321L232.196,150.847z"/>
		<path class="st0" d="M279.903,171.984l-4.191-9.979l-1.327-3.379v13.358h-2.382v-20.081h2.142l3.949,10.131l1.237,3.408v-13.539
			h2.382v20.081H279.903z"/>
		<path class="st0" d="M322.967,171.984h-4.794v-20.081h4.794c3.166,0,4.522,1.96,4.522,4.915v10.252
			C327.489,170.024,326.133,171.984,322.967,171.984z M324.987,156.818c0-1.688-0.633-2.564-2.142-2.564h-2.14v15.378h2.14
			c1.509,0,2.142-0.873,2.142-2.532V156.818z"/>
		<path class="st0" d="M363.77,171.984v-20.081h7.87v2.29h-5.368v6.242h3.891v2.202h-3.891v7.055h5.368v2.292H363.77z"/>
		<path class="st0" d="M409.728,169.692h5.881v2.292h-8.896v-1.205l6.212-16.525h-5.88v-2.351h8.835v1.206L409.728,169.692z"/>
	</g>
</g>
</svg>
