<?xml version="1.0" encoding="utf-8"?>
<!-- Generator: Adobe Illustrator 16.0.0, SVG Export Plug-In . SVG Version: 6.00 Build 0)  -->
<!DOCTYPE svg PUBLIC "-//W3C//DTD SVG 1.1//EN" "http://www.w3.org/Graphics/SVG/1.1/DTD/svg11.dtd">
<svg version="1.1" id="Layer_1" xmlns="http://www.w3.org/2000/svg" xmlns:xlink="http://www.w3.org/1999/xlink" x="0px" y="0px"
	 width="30px" height="30px" viewBox="0 0 30 30" style="enable-background:new 0 0 30 30;" xml:space="preserve">
<style type="text/css">
<![CDATA[
	.st0{fill:#FFFFFF;}
]]>
</style>
<path class="st0" d="M3.977,0.169h22.047c2.094,0,3.808,1.713,3.808,3.807v22.047c0,2.095-1.714,3.808-3.808,3.808H3.977
	c-2.094,0-3.808-1.713-3.808-3.808V3.976C0.169,1.882,1.882,0.169,3.977,0.169L3.977,0.169z M21.775,3.465
	c-0.734,0-1.335,0.6-1.335,1.334v3.196c0,0.735,0.601,1.335,1.335,1.335h3.354c0.735,0,1.335-0.6,1.335-1.335V4.8
	c0-0.735-0.6-1.334-1.335-1.334H21.775L21.775,3.465z M26.478,12.713h-2.61c0.247,0.807,0.381,1.662,0.381,2.545
	c0,4.933-4.129,8.933-9.219,8.933c-5.093,0-9.221-3.998-9.221-8.933c0-0.884,0.133-1.739,0.381-2.545H3.463v12.529
	c0,0.649,0.532,1.18,1.179,1.18h20.655c0.649,0,1.18-0.53,1.18-1.18V12.713L26.478,12.713z M15.029,9.164
	c-3.29,0-5.958,2.584-5.958,5.773s2.667,5.771,5.958,5.771c3.291,0,5.957-2.583,5.957-5.771S18.316,9.164,15.029,9.164z"/>
</svg>
