<?xml version="1.0" encoding="utf-8"?>
<!-- Generator: Adobe Illustrator 16.0.0, SVG Export Plug-In . SVG Version: 6.00 Build 0)  -->
<!DOCTYPE svg PUBLIC "-//W3C//DTD SVG 1.1//EN" "http://www.w3.org/Graphics/SVG/1.1/DTD/svg11.dtd">
<svg version="1.1" id="Layer_1" xmlns="http://www.w3.org/2000/svg" xmlns:xlink="http://www.w3.org/1999/xlink" x="0px" y="0px"
	 width="30px" height="30px" viewBox="0 0 30 30" style="enable-background:new 0 0 30 30;" xml:space="preserve">
<style type="text/css">
<![CDATA[
	.st0{fill:#D78E5C;}
]]>
</style>
<g>
	<path class="st0" d="M15.183,28.658c-0.083,0-0.161-0.004-0.221-0.006c-0.047,0.004-0.096,0.006-0.146,0.006
		c-1.732,0-2.89-0.819-3.913-1.542c-0.733-0.519-1.424-1.007-2.233-1.142c-0.398-0.065-0.793-0.1-1.175-0.1
		c-0.688,0-1.232,0.105-1.63,0.186c-0.244,0.047-0.455,0.088-0.618,0.088c-0.17,0-0.378-0.037-0.464-0.332
		c-0.068-0.233-0.118-0.459-0.165-0.676C4.5,24.6,4.413,24.268,4.21,24.234c-2.173-0.334-3.457-0.828-3.712-1.426
		c-0.027-0.063-0.042-0.127-0.045-0.188c-0.01-0.179,0.116-0.335,0.292-0.363c1.725-0.284,3.26-1.196,4.561-2.713
		c1.007-1.173,1.502-2.294,1.556-2.418c0.002-0.005,0.004-0.011,0.007-0.017c0.251-0.51,0.301-0.948,0.149-1.307
		c-0.28-0.661-1.208-0.955-1.821-1.149c-0.152-0.048-0.296-0.094-0.411-0.14c-0.546-0.214-1.44-0.668-1.321-1.295
		c0.087-0.457,0.691-0.774,1.179-0.774c0.136,0,0.256,0.023,0.357,0.071c0.552,0.259,1.048,0.39,1.475,0.39
		c0.531,0,0.787-0.202,0.849-0.259c-0.015-0.284-0.034-0.583-0.052-0.866v-0.003c-0.125-1.983-0.28-4.45,0.351-5.865
		c1.889-4.235,5.894-4.564,7.077-4.564c0.032,0,0.515-0.005,0.515-0.005c0.022-0.001,0.046-0.001,0.071-0.001
		c1.186,0,5.199,0.33,7.089,4.567c0.631,1.416,0.476,3.885,0.351,5.869l-0.006,0.095c-0.018,0.27-0.033,0.525-0.047,0.771
		c0.059,0.054,0.294,0.239,0.771,0.258c0.406-0.016,0.875-0.146,1.39-0.387c0.159-0.075,0.336-0.09,0.455-0.09
		c0.181,0,0.364,0.035,0.519,0.1l0.01,0.003c0.437,0.155,0.723,0.465,0.729,0.791c0.006,0.304-0.22,0.757-1.329,1.195
		c-0.114,0.046-0.259,0.092-0.411,0.14c-0.615,0.195-1.541,0.489-1.82,1.148c-0.152,0.358-0.103,0.797,0.147,1.307
		c0.003,0.006,0.007,0.012,0.009,0.018c0.076,0.182,1.945,4.441,6.115,5.129c0.176,0.03,0.303,0.188,0.292,0.364
		c-0.004,0.063-0.021,0.127-0.046,0.19c-0.255,0.594-1.538,1.088-3.712,1.422c-0.204,0.031-0.29,0.361-0.407,0.901
		c-0.049,0.224-0.099,0.441-0.166,0.671c-0.062,0.217-0.203,0.322-0.43,0.322h-0.034c-0.147,0-0.354-0.027-0.618-0.079
		c-0.46-0.089-0.976-0.172-1.631-0.172c-0.381,0-0.775,0.033-1.175,0.101c-0.81,0.135-1.5,0.623-2.231,1.14
		C18.074,27.839,16.915,28.658,15.183,28.658"/>
	<path class="st0" d="M15.287,1.691c1.115,0,4.959,0.3,6.77,4.36c0.598,1.337,0.443,3.759,0.321,5.705
		c-0.019,0.309-0.038,0.608-0.054,0.894l-0.008,0.123l0.084,0.091c0.031,0.037,0.343,0.361,1.031,0.388h0.012h0.012
		c0.456-0.018,0.97-0.16,1.527-0.42c0.082-0.039,0.19-0.058,0.307-0.058c0.132,0,0.271,0.025,0.388,0.074l0.019,0.007
		c0.291,0.103,0.498,0.295,0.502,0.47c0.002,0.099-0.072,0.456-1.108,0.865c-0.103,0.04-0.233,0.083-0.39,0.131
		c-0.676,0.215-1.693,0.538-2.036,1.346c-0.192,0.456-0.142,0.993,0.155,1.597c0.123,0.285,2.049,4.623,6.381,5.338
		c0,0.02-0.006,0.043-0.018,0.068c-0.072,0.173-0.541,0.77-3.445,1.219c-0.453,0.069-0.564,0.579-0.693,1.17
		c-0.047,0.213-0.094,0.428-0.159,0.647c-0.021,0.067-0.024,0.071-0.096,0.071c-0.011,0-0.022,0-0.034,0
		c-0.129,0-0.324-0.027-0.551-0.071c-0.413-0.08-0.977-0.179-1.698-0.179c-0.401,0-0.815,0.033-1.231,0.104
		c-0.89,0.148-1.611,0.659-2.377,1.2c-1.027,0.728-2.09,1.479-3.711,1.479c-0.071,0-0.14-0.004-0.209-0.006l-0.019-0.002
		l-0.018,0.002c-0.04,0.004-0.08,0.006-0.121,0.006c-1.621,0-2.684-0.752-3.711-1.479c-0.766-0.541-1.489-1.052-2.377-1.2
		c-0.416-0.068-0.83-0.104-1.232-0.104c-0.721,0-1.285,0.108-1.697,0.189C5.571,25.762,5.375,25.8,5.247,25.8
		c-0.105,0-0.107-0.007-0.129-0.082c-0.065-0.222-0.113-0.44-0.159-0.651c-0.129-0.592-0.241-1.105-0.695-1.176
		c-2.905-0.447-3.372-1.047-3.445-1.22c-0.011-0.026-0.017-0.05-0.018-0.069c4.333-0.715,6.258-5.052,6.38-5.338
		c0.298-0.604,0.351-1.141,0.157-1.597c-0.343-0.807-1.361-1.131-2.036-1.345c-0.155-0.049-0.289-0.092-0.39-0.132
		c-0.875-0.346-1.144-0.694-1.104-0.905c0.046-0.244,0.469-0.491,0.837-0.491c0.083,0,0.155,0.013,0.209,0.039
		c0.599,0.28,1.145,0.423,1.624,0.423c0.753,0,1.088-0.351,1.124-0.391l0.082-0.091L7.676,12.65
		c-0.016-0.285-0.034-0.584-0.054-0.893C7.5,9.812,7.347,7.391,7.943,6.054c1.804-4.045,5.629-4.357,6.758-4.357
		c0.028,0,0.519-0.005,0.519-0.005C15.241,1.691,15.263,1.691,15.287,1.691 M15.287,0.993h-0.002c-0.025,0-0.05,0-0.072,0
		c-0.184,0.002-0.485,0.005-0.512,0.005c-0.662,0-1.985,0.093-3.406,0.721C10.48,2.078,9.75,2.562,9.121,3.16
		C8.371,3.872,7.76,4.75,7.305,5.77c-0.666,1.493-0.507,4.008-0.38,6.029v0.003c0.014,0.216,0.028,0.442,0.042,0.662
		c-0.098,0.045-0.256,0.093-0.49,0.093c-0.375,0-0.822-0.12-1.327-0.357c-0.148-0.069-0.318-0.104-0.505-0.104
		c-0.3,0-0.617,0.088-0.892,0.25c-0.346,0.204-0.57,0.491-0.631,0.809c-0.04,0.211-0.038,0.627,0.424,1.048
		c0.254,0.232,0.627,0.447,1.11,0.637c0.126,0.05,0.276,0.097,0.435,0.147c0.552,0.175,1.387,0.44,1.605,0.953
		c0.11,0.262,0.062,0.603-0.141,1.017c-0.006,0.011-0.011,0.022-0.016,0.033c-0.05,0.118-0.525,1.194-1.499,2.329
		c-0.554,0.645-1.163,1.184-1.811,1.602c-0.791,0.512-1.646,0.846-2.542,0.993c-0.352,0.058-0.603,0.371-0.583,0.728
		c0.006,0.104,0.03,0.205,0.072,0.305c0,0,0,0.002,0.001,0.003c0.142,0.331,0.472,0.614,1.008,0.864
		c0.656,0.305,1.636,0.561,2.914,0.761c0.065,0.122,0.131,0.432,0.178,0.644c0.049,0.225,0.099,0.454,0.171,0.7
		c0.078,0.267,0.28,0.583,0.799,0.583c0.196,0,0.423-0.045,0.685-0.096c0.384-0.075,0.908-0.178,1.563-0.178
		c0.363,0,0.739,0.031,1.119,0.094c0.729,0.123,1.359,0.566,2.087,1.082c1.066,0.754,2.272,1.605,4.116,1.605
		c0.05,0,0.101-0.002,0.151-0.005c0.061,0.003,0.136,0.005,0.216,0.005c1.843,0,3.05-0.854,4.115-1.605l0.002-0.002
		c0.729-0.514,1.356-0.957,2.088-1.08c0.379-0.062,0.754-0.094,1.116-0.094c0.627,0,1.121,0.08,1.563,0.166
		c0.289,0.057,0.513,0.084,0.686,0.084h0.018h0.018c0.38,0,0.658-0.207,0.766-0.572c0.07-0.24,0.12-0.467,0.17-0.693
		c0.045-0.199,0.113-0.516,0.178-0.641c1.279-0.2,2.26-0.456,2.914-0.76c0.535-0.248,0.865-0.531,1.009-0.862
		c0.043-0.101,0.067-0.202,0.073-0.308c0.021-0.355-0.23-0.67-0.584-0.729c-3.982-0.656-5.776-4.749-5.852-4.923
		c-0.005-0.011-0.011-0.022-0.018-0.034c-0.202-0.413-0.25-0.754-0.139-1.016c0.217-0.511,1.051-0.776,1.604-0.953
		c0.16-0.05,0.311-0.098,0.436-0.147c0.545-0.214,0.934-0.448,1.188-0.712c0.307-0.316,0.366-0.618,0.362-0.815
		c-0.011-0.479-0.377-0.903-0.957-1.111c-0.196-0.081-0.422-0.125-0.648-0.125c-0.155,0-0.385,0.021-0.604,0.123
		c-0.465,0.218-0.883,0.337-1.242,0.354c-0.189-0.01-0.323-0.051-0.409-0.091c0.011-0.186,0.022-0.378,0.034-0.578l0.006-0.086
		c0.128-2.022,0.285-4.539-0.381-6.033c-0.455-1.023-1.068-1.904-1.821-2.617c-0.632-0.599-1.364-1.083-2.181-1.441
		C17.271,1.086,15.949,0.993,15.287,0.993"/>
</g>
</svg>
