<?xml version="1.0" encoding="utf-8"?>
<!-- Generator: Adobe Illustrator 16.0.0, SVG Export Plug-In . SVG Version: 6.00 Build 0)  -->
<!DOCTYPE svg PUBLIC "-//W3C//DTD SVG 1.1//EN" "http://www.w3.org/Graphics/SVG/1.1/DTD/svg11.dtd">
<svg version="1.1" id="Layer_1" xmlns="http://www.w3.org/2000/svg" xmlns:xlink="http://www.w3.org/1999/xlink" x="0px" y="0px"
	 width="30px" height="30px" viewBox="0 0 30 30" style="enable-background:new 0 0 30 30;" xml:space="preserve">
<style type="text/css">
<![CDATA[
	.st0{fill:#D78E5C;}
]]>
</style>
<path class="st0" d="M29.886,5.767c-1.096,0.485-2.271,0.813-3.508,0.961c1.261-0.756,2.229-1.953,2.687-3.378
	c-1.182,0.699-2.487,1.208-3.879,1.482c-1.115-1.188-2.703-1.929-4.459-1.929c-3.373,0-6.108,2.735-6.108,6.108
	c0,0.479,0.055,0.944,0.159,1.392C9.7,10.148,5.2,7.716,2.187,4.021C1.661,4.922,1.36,5.972,1.36,7.091
	c0,2.119,1.079,3.989,2.717,5.084c-1.001-0.032-1.943-0.307-2.766-0.763c-0.001,0.024-0.001,0.05-0.001,0.076
	c0,2.959,2.105,5.428,4.899,5.989c-0.512,0.14-1.052,0.215-1.609,0.215c-0.394,0-0.776-0.039-1.149-0.109
	c0.777,2.427,3.033,4.191,5.706,4.241c-2.09,1.639-4.724,2.614-7.586,2.614c-0.493,0-0.979-0.027-1.457-0.084
	c2.703,1.731,5.914,2.744,9.363,2.744c11.236,0,17.378-9.309,17.378-17.38c0-0.265-0.006-0.528-0.018-0.79
	C28.031,8.067,29.066,6.991,29.886,5.767z"/>
</svg>
