<?xml version="1.0" encoding="utf-8"?>
<!-- Generator: Adobe Illustrator 16.0.0, SVG Export Plug-In . SVG Version: 6.00 Build 0)  -->
<!DOCTYPE svg PUBLIC "-//W3C//DTD SVG 1.1//EN" "http://www.w3.org/Graphics/SVG/1.1/DTD/svg11.dtd">
<svg version="1.1" id="Layer_1" xmlns="http://www.w3.org/2000/svg" xmlns:xlink="http://www.w3.org/1999/xlink" x="0px" y="0px"
	 width="30px" height="30px" viewBox="0 0 30 30" enable-background="new 0 0 30 30" xml:space="preserve">
<path id="The_Sharpness" opacity="0.12" fill-rule="evenodd" clip-rule="evenodd" fill="#420000" d="M11.988,10.79l6.911,4.616
	l0.97-0.504L11.988,10.79z"/>
<g id="Lozenge">
	<g>
		<path fill="#FFFFFF" d="M29.291,9.371c0,0-0.286-2.01-1.16-2.895c-1.107-1.162-2.352-1.167-2.922-1.235
			c-4.08-0.294-10.203-0.294-10.203-0.294h-0.012c0,0-6.122,0-10.203,0.294c-0.57,0.068-1.812,0.074-2.922,1.235
			C0.995,7.361,0.71,9.371,0.71,9.371s-0.292,2.36-0.292,4.72v2.213c0,2.359,0.292,4.72,0.292,4.72s0.285,2.01,1.159,2.895
			c1.11,1.161,2.566,1.126,3.216,1.247C7.418,25.389,15,25.458,15,25.458s6.128-0.01,10.208-0.305
			c0.57-0.067,1.814-0.074,2.922-1.235c0.874-0.885,1.16-2.895,1.16-2.895s0.291-2.36,0.291-4.72v-2.213
			C29.582,11.731,29.291,9.371,29.291,9.371z M11.989,18.984l-0.001-8.194l7.88,4.112L11.989,18.984z"/>
	</g>
</g>
</svg>
